# xmcd
#
# Track frame offsets:
#	150
#	11989
#	23158
#	36379
#	45992
#	58158
#	73250
#	86113
#	97539
#	107688
#	121198
#	133146
#	146986
#	157040
#	167555
#	181069
#	191159
#	205081
#	215100
#	228792
#
# Disc length: 3167 seconds
# Revision: 0
# Processed by: cddbd v1.5.2PL0 Copyright (c) Steve Scherf et al.
# Submitted via: dBpowerAMP V12.0
#
DISCID=200c5d14
DTITLE=Various Artist - R&B Hipshakers Vol.2 - Scratch That Itch
DYEAR=1963
DGENRE=Rhythm and Blues
TTITLE0=Hank Marr - Marsanova
TTITLE1=Rudy Ray Moore - The Buggy Ride
TTITLE2=El Pauling and Royal Abbit - Jail Bird
TTITLE3=Mike Pedicin - Burnt Toast And Black Coffee
TTITLE4=Mary Johnson - You Have My Blessings
TTITLE5=Freddy King - The Bossa Nova Watusi Twist
TTITLE6=Amos Milburn - Whiz-A-Shoo-Pepi-Dada
TTITLE7=Hank Ballard and The Midnighters - What's Your Name
TTITLE8=Lula Reed - Puddentane
TTITLE9=Johnny Watson - I Say, I Love You
TTITLE10=Titus Turner - Coralee
TTITLE11=Carol Ford - Run Baby
TTITLE12=Billy Lamont - Hear Me Now
TTITLE13=Hank Ballard and The Midnighters - What Is This I See
TTITLE14=Elliott Shavers and His Blazers - Scratch That Itch
TTITLE15=Mickey Baker - Steam Roller
TTITLE16=Eddie Kirk - Monkey Tonight
TTITLE17=Lloyd Nolan - Fun Fun
TTITLE18=Willie Dixon and The Big Wheels - Our Kind Of Love
TTITLE19=Otis Redding - Shout Bamalama
EXTD=
EXTT0=
EXTT1=
EXTT2=
EXTT3=
EXTT4=
EXTT5=
EXTT6=
EXTT7=
EXTT8=
EXTT9=
EXTT10=
EXTT11=
EXTT12=
EXTT13=
EXTT14=
EXTT15=
EXTT16=
EXTT17=
EXTT18=
EXTT19=
PLAYORDER=
